# Blender v2.68 (sub 0) OBJ File: 'primitives.blend'
# www.blender.org
g wheel
v 0.382683 4.000000 0.923880
v 0.382683 2.000000 0.923880
v 0.923880 4.000000 0.382683
v 0.923880 2.000000 0.382684
v 0.923879 4.000000 -0.382683
v 0.923880 2.000000 -0.382683
v 0.382684 4.000000 -0.923880
v 0.382684 2.000000 -0.923879
v -0.382684 4.000000 -0.923880
v -0.382683 2.000000 -0.923880
v -0.923880 4.000000 -0.382683
v -0.923880 2.000000 -0.382683
v -0.923880 4.000000 0.382683
v -0.923880 2.000000 0.382683
v -0.382684 4.000000 0.923879
v -0.382684 2.000000 0.923879
vn 0.297098 0.630238 0.717277
vn 0.297098 -0.630238 0.717277
vn 0.717277 0.630238 0.297098
vn 0.717277 -0.630238 0.297098
vn 0.717277 0.630238 -0.297098
vn 0.717277 -0.630238 -0.297098
vn 0.297098 0.630238 -0.717277
vn 0.297098 -0.630238 -0.717277
vn -0.297098 0.630238 -0.717277
vn -0.297098 -0.630238 -0.717277
vn -0.717277 0.630238 -0.297098
vn -0.717277 -0.630238 -0.297098
vn -0.717277 0.630238 0.297098
vn -0.297098 -0.630238 0.717277
vn -0.297098 0.630238 0.717277
vn -0.717277 -0.630238 0.297098
s 1
f 1//1 2//2 3//3
f 3//3 4//4 5//5
f 5//5 6//6 7//7
f 7//7 8//8 9//9
f 9//9 10//10 11//11
f 11//11 12//12 13//13
f 4//4 2//2 16//14
f 15//15 16//14 1//1
f 13//13 14//16 15//15
f 11//11 7//7 9//9
f 2//2 4//4 3//3
f 4//4 6//6 5//5
f 6//6 8//8 7//7
f 8//8 10//10 9//9
f 10//10 12//12 11//11
f 12//12 14//16 13//13
f 6//6 4//4 16//14
f 10//10 8//8 12//12
f 8//8 6//6 12//12
f 6//6 16//14 14//16
f 12//12 6//6 14//16
f 16//14 2//2 1//1
f 14//16 16//14 15//15
f 1//1 3//3 15//15
f 3//3 5//5 15//15
f 5//5 7//7 11//11
f 15//15 5//5 13//13
f 5//5 11//11 13//13
g capsule
v 6.000000 0.000000 -2.000000
v 6.723607 -0.525725 -1.447219
v 5.723612 -0.850649 -1.447220
v 5.105574 0.000000 -1.447216
v 5.723612 0.850649 -1.447220
v 6.723607 0.525725 -1.447219
v 6.425323 -0.309011 -1.850654
v 6.262869 -0.809012 -1.525738
v 5.837544 -0.499995 -1.850654
v 6.425323 0.309011 -1.850654
v 6.850648 0.000000 -1.525736
v 5.311810 -0.499997 -1.525736
v 5.474270 0.000000 -1.850652
v 5.311810 0.499997 -1.525736
v 5.837544 0.499995 -1.850654
v 6.262869 0.809012 -1.525738
v 6.951058 0.309013 -1.000000
v 6.951058 -0.309013 -1.000000
v 6.587786 -0.809017 -1.000000
v 6.000000 -1.000000 -1.000000
v 5.412214 -0.809017 -1.000000
v 5.048942 -0.309013 -1.000000
v 5.048942 0.309013 -1.000000
v 5.412214 0.809017 -1.000000
v 6.000000 1.000000 -1.000000
v 6.587786 0.809017 -1.000000
v 6.276388 -0.850649 1.447220
v 5.276393 -0.525725 1.447220
v 5.276393 0.525725 1.447220
v 6.276388 0.850649 1.447220
v 6.894426 0.000000 1.447216
v 6.000000 0.000000 2.000000
v 6.951058 0.309013 1.000000
v 6.951058 -0.309013 1.000000
v 6.587786 -0.809017 1.000000
v 6.000000 -1.000000 1.000000
v 5.412214 -0.809017 1.000000
v 5.048942 -0.309013 1.000000
v 5.048942 0.309013 1.000000
v 5.412214 0.809017 1.000000
v 6.000000 1.000000 1.000000
v 6.587786 0.809017 1.000000
v 6.688190 -0.499997 1.525736
v 5.737131 -0.809012 1.525738
v 5.149352 0.000000 1.525736
v 5.737131 0.809012 1.525738
v 6.688190 0.499997 1.525736
v 6.525730 0.000000 1.850652
v 6.162456 -0.499995 1.850654
v 5.574677 -0.309011 1.850654
v 5.574677 0.309011 1.850654
v 6.162456 0.499995 1.850654
vn 0.000000 0.000000 -1.000000
vn 0.425306 -0.309000 -0.850642
vn -0.162450 -0.499985 -0.850642
vn 0.723594 -0.525712 -0.447188
vn 0.850642 0.000000 -0.525712
vn -0.525712 0.000000 -0.850642
vn -0.162450 0.499985 -0.850642
vn 0.425306 0.309000 -0.850642
vn 0.947661 -0.299875 -0.109500
vn -0.276376 -0.850642 -0.447218
vn 0.262856 -0.808985 -0.525712
vn 0.007630 -0.993927 -0.109500
vn -0.894406 0.000000 -0.447188
vn -0.688162 -0.499985 -0.525712
vn -0.942930 -0.314402 -0.109500
vn -0.276376 0.850642 -0.447218
vn -0.688162 0.499985 -0.525712
vn -0.590381 0.799615 -0.109500
vn 0.723594 0.525712 -0.447188
vn 0.262856 0.808985 -0.525712
vn 0.578051 0.808588 -0.109500
vn 0.578051 -0.808588 -0.109500
vn -0.590381 -0.799615 -0.109500
vn -0.942930 0.314402 -0.109500
vn 0.007630 0.993927 -0.109500
vn 0.947661 0.299875 -0.109500
vn 0.276376 -0.850642 0.447218
vn 0.688162 -0.499985 0.525712
vn 0.162450 -0.499985 0.850642
vn -0.723594 -0.525712 0.447188
vn -0.262856 -0.808985 0.525712
vn -0.425306 -0.309000 0.850642
vn -0.723594 0.525712 0.447188
vn -0.850642 0.000000 0.525712
vn -0.425306 0.309000 0.850642
vn 0.276376 0.850642 0.447218
vn -0.262856 0.808985 0.525712
vn 0.162450 0.499985 0.850642
vn 0.894406 0.000000 0.447188
vn 0.688162 0.499985 0.525712
vn 0.525712 0.000000 0.850642
vn 0.942930 -0.314402 0.109500
vn 0.942930 0.314402 0.109500
vn -0.007630 -0.993927 0.109500
vn 0.590381 -0.799615 0.109500
vn -0.947661 -0.299875 0.109500
vn -0.578051 -0.808588 0.109500
vn -0.578051 0.808588 0.109500
vn -0.947661 0.299875 0.109500
vn 0.590381 0.799615 0.109500
vn -0.007630 0.993927 0.109500
vn 0.000000 0.000000 1.000000
s 1
f 17//17 23//18 25//19
f 18//20 23//18 27//21
f 17//17 25//19 29//22
f 17//17 29//22 31//23
f 17//17 31//23 26//24
f 18//20 27//21 34//25
f 19//26 24//27 36//28
f 20//29 28//30 38//31
f 21//32 30//33 40//34
f 22//35 32//36 42//37
f 18//20 34//25 35//38
f 19//26 36//28 37//39
f 20//29 38//31 39//40
f 21//32 40//34 41//41
f 22//35 42//37 33//42
f 25//19 24//27 19//26
f 25//19 23//18 24//27
f 23//18 18//20 24//27
f 27//21 26//24 22//35
f 27//21 23//18 26//24
f 23//18 17//17 26//24
f 29//22 28//30 20//29
f 29//22 25//19 28//30
f 25//19 19//26 28//30
f 31//23 30//33 21//32
f 31//23 29//22 30//33
f 29//22 20//29 30//33
f 26//24 32//36 22//35
f 26//24 31//23 32//36
f 31//23 21//32 32//36
f 34//25 27//21 33//42
f 27//21 22//35 33//42
f 36//28 24//27 35//38
f 24//27 18//20 35//38
f 38//31 28//30 37//39
f 28//30 19//26 37//39
f 40//34 30//33 39//40
f 30//33 20//29 39//40
f 42//37 32//36 41//41
f 32//36 21//32 41//41
f 43//43 59//44 65//45
f 44//46 60//47 66//48
f 45//49 61//50 67//51
f 46//52 62//53 68//54
f 47//55 63//56 64//57
f 50//58 49//59 47//55
f 52//60 51//61 43//43
f 54//62 53//63 44//46
f 56//64 55//65 45//49
f 58//66 57//67 46//52
f 51//61 59//44 43//43
f 51//61 50//58 59//44
f 50//58 47//55 59//44
f 53//63 60//47 44//46
f 53//63 52//60 60//47
f 52//60 43//43 60//47
f 55//65 61//50 45//49
f 55//65 54//62 61//50
f 54//62 44//46 61//50
f 57//67 62//53 46//52
f 57//67 56//64 62//53
f 56//64 45//49 62//53
f 49//59 63//56 47//55
f 49//59 58//66 63//56
f 58//66 46//52 63//56
f 65//45 64//57 48//68
f 65//45 59//44 64//57
f 59//44 47//55 64//57
f 66//48 65//45 48//68
f 66//48 60//47 65//45
f 60//47 43//43 65//45
f 67//51 66//48 48//68
f 67//51 61//50 66//48
f 61//50 44//46 66//48
f 68//54 67//51 48//68
f 68//54 62//53 67//51
f 62//53 45//49 67//51
f 64//57 68//54 48//68
f 64//57 63//56 68//54
f 63//56 46//52 68//54
f 53//63 54//62 37//39
f 57//67 58//66 41//41
f 52//60 53//63 36//28
f 51//61 52//60 35//38
f 54//62 55//65 38//31
f 55//65 56//64 39//40
f 56//64 57//67 40//34
f 50//58 51//61 34//25
f 58//66 49//59 42//37
f 49//59 50//58 33//42
f 54//62 38//31 37//39
f 58//66 42//37 41//41
f 53//63 37//39 36//28
f 52//60 36//28 35//38
f 55//65 39//40 38//31
f 56//64 40//34 39//40
f 57//67 41//41 40//34
f 51//61 35//38 34//25
f 49//59 33//42 42//37
f 50//58 34//25 33//42
g cylinder
v 3.000000 1.000000 -1.000000
v 3.000000 1.000000 1.000000
v 3.382684 0.923880 -1.000000
v 3.382684 0.923880 1.000000
v 3.707107 0.707107 -1.000000
v 3.707107 0.707107 1.000000
v 3.923880 0.382683 -1.000000
v 3.923880 0.382683 1.000000
v 4.000000 -0.000000 -1.000000
v 4.000000 -0.000000 1.000000
v 3.923880 -0.382684 -1.000000
v 3.923880 -0.382684 1.000000
v 3.707107 -0.707107 -1.000000
v 3.707107 -0.707107 1.000000
v 3.382684 -0.923880 -1.000000
v 3.382684 -0.923880 1.000000
v 3.000000 -1.000000 -1.000000
v 3.000000 -1.000000 1.000000
v 2.617317 -0.923880 -1.000000
v 2.617317 -0.923880 1.000000
v 2.292893 -0.707107 -1.000000
v 2.292893 -0.707107 1.000000
v 2.076120 -0.382684 -1.000000
v 2.076120 -0.382684 1.000000
v 2.000000 0.000000 -1.000000
v 2.000000 0.000000 1.000000
v 2.076121 0.382684 -1.000000
v 2.076121 0.382684 1.000000
v 2.292893 0.707107 -1.000000
v 2.292893 0.707107 1.000000
v 2.617317 0.923880 -1.000000
v 2.617317 0.923880 1.000000
vn 0.000000 0.746178 -0.665700
vn 0.000000 0.746178 0.665700
vn 0.285531 0.689383 -0.665700
vn 0.285531 0.689383 0.665700
vn 0.527635 0.527635 -0.665700
vn 0.527635 0.527635 0.665700
vn 0.689383 0.285531 -0.665700
vn 0.689383 0.285531 0.665700
vn 0.746178 0.000000 -0.665700
vn 0.746178 0.000000 0.665700
vn 0.689383 -0.285531 -0.665700
vn 0.689383 -0.285531 0.665700
vn 0.527635 -0.527635 -0.665700
vn 0.527635 -0.527635 0.665700
vn 0.285531 -0.689383 -0.665700
vn 0.285531 -0.689383 0.665700
vn 0.000000 -0.746178 -0.665700
vn 0.000000 -0.746178 0.665700
vn -0.285531 -0.689383 -0.665700
vn -0.285531 -0.689383 0.665700
vn -0.527635 -0.527635 -0.665700
vn -0.527635 -0.527635 0.665700
vn -0.689383 -0.285531 -0.665700
vn -0.689383 -0.285531 0.665700
vn -0.746178 0.000000 -0.665700
vn -0.746178 0.000000 0.665700
vn -0.689383 0.285531 -0.665700
vn -0.689383 0.285531 0.665700
vn -0.527635 0.527635 -0.665700
vn -0.285531 0.689383 -0.665700
vn -0.285531 0.689383 0.665700
vn -0.527635 0.527635 0.665700
s 1
f 69//69 70//70 71//71
f 71//71 72//72 73//73
f 73//73 74//74 75//75
f 75//75 76//76 77//77
f 77//77 78//78 79//79
f 79//79 80//80 81//81
f 81//81 82//82 83//83
f 83//83 84//84 85//85
f 85//85 86//86 87//87
f 87//87 88//88 89//89
f 89//89 90//90 91//91
f 91//91 92//92 93//93
f 93//93 94//94 95//95
f 95//95 96//96 97//97
f 72//72 70//70 74//74
f 99//98 100//99 69//69
f 97//97 98//100 99//98
f 69//69 71//71 99//98
f 70//70 72//72 71//71
f 72//72 74//74 73//73
f 74//74 76//76 75//75
f 76//76 78//78 77//77
f 78//78 80//80 79//79
f 80//80 82//82 81//81
f 82//82 84//84 83//83
f 84//84 86//86 85//85
f 86//86 88//88 87//87
f 88//88 90//90 89//89
f 90//90 92//92 91//91
f 92//92 94//94 93//93
f 94//94 96//96 95//95
f 96//96 98//100 97//97
f 92//92 96//96 94//94
f 90//90 96//96 92//92
f 90//90 98//100 96//96
f 100//99 98//100 90//90
f 100//99 90//90 88//88
f 70//70 100//99 88//88
f 74//74 70//70 88//88
f 76//76 74//74 88//88
f 80//80 78//78 82//82
f 82//82 78//78 84//84
f 78//78 76//76 84//84
f 76//76 88//88 86//86
f 84//84 76//76 86//86
f 100//99 70//70 69//69
f 98//100 100//99 99//98
f 95//95 91//91 93//93
f 95//95 89//89 91//91
f 97//97 89//89 95//95
f 97//97 87//87 89//89
f 97//97 85//85 87//87
f 97//97 83//83 85//85
f 97//97 81//81 83//83
f 99//98 81//81 97//97
f 99//98 71//71 81//81
f 71//71 73//73 81//81
f 73//73 75//75 81//81
f 75//75 77//77 81//81
f 77//77 79//79 81//81
g sphere
v 0.000000 0.000000 -1.000000
v 0.723607 -0.525725 -0.447220
v -0.276388 -0.850649 -0.447220
v -0.894426 0.000000 -0.447216
v -0.276388 0.850649 -0.447220
v 0.723607 0.525725 -0.447220
v 0.276388 -0.850649 0.447220
v -0.723607 -0.525725 0.447220
v -0.723607 0.525725 0.447220
v 0.276388 0.850649 0.447220
v 0.894426 0.000000 0.447216
v 0.000000 0.000000 1.000000
v 0.425323 -0.309011 -0.850654
v 0.262869 -0.809012 -0.525738
v -0.162456 -0.499995 -0.850654
v 0.425323 0.309011 -0.850654
v 0.850648 0.000000 -0.525736
v -0.688189 -0.499997 -0.525736
v -0.525730 0.000000 -0.850652
v -0.688189 0.499997 -0.525736
v -0.162456 0.499995 -0.850654
v 0.262869 0.809012 -0.525738
v 0.951058 0.309013 0.000000
v 0.951058 -0.309013 0.000000
v 0.587786 -0.809017 0.000000
v 0.000000 -1.000000 0.000000
v -0.587786 -0.809017 0.000000
v -0.951058 -0.309013 0.000000
v -0.951058 0.309013 0.000000
v -0.587786 0.809017 0.000000
v 0.000000 1.000000 0.000000
v 0.587786 0.809017 0.000000
v 0.688189 -0.499997 0.525736
v -0.262869 -0.809012 0.525738
v -0.850648 0.000000 0.525736
v -0.262869 0.809012 0.525738
v 0.688189 0.499997 0.525736
v 0.525730 0.000000 0.850652
v 0.162456 -0.499995 0.850654
v -0.425323 -0.309011 0.850654
v -0.425323 0.309011 0.850654
v 0.162456 0.499995 0.850654
vn 0.951048 -0.309000 0.000000
vn 0.000000 -1.000000 0.000000
vn -0.951048 -0.309000 0.000000
vn -0.587756 0.809015 0.000000
vn 0.587756 0.809015 0.000000
vn 0.587756 -0.809015 0.000000
vn -0.587756 -0.809015 0.000000
vn -0.951048 0.309000 0.000000
vn 0.000000 1.000000 0.000000
vn 0.951048 0.309000 0.000000
s 1
f 101//17 113//18 115//19
f 102//20 113//18 117//21
f 101//17 115//19 119//22
f 101//17 119//22 121//23
f 101//17 121//23 116//24
f 102//20 117//21 124//101
f 103//26 114//27 126//102
f 104//29 118//30 128//103
f 105//32 120//33 130//104
f 106//35 122//36 132//105
f 102//20 124//101 125//106
f 103//26 126//102 127//107
f 104//29 128//103 129//108
f 105//32 130//104 131//109
f 106//35 132//105 123//110
f 107//43 133//44 139//45
f 108//46 134//47 140//48
f 109//49 135//50 141//51
f 110//52 136//53 142//54
f 111//55 137//56 138//57
f 115//19 114//27 103//26
f 115//19 113//18 114//27
f 113//18 102//20 114//27
f 117//21 116//24 106//35
f 117//21 113//18 116//24
f 113//18 101//17 116//24
f 119//22 118//30 104//29
f 119//22 115//19 118//30
f 115//19 103//26 118//30
f 121//23 120//33 105//32
f 121//23 119//22 120//33
f 119//22 104//29 120//33
f 116//24 122//36 106//35
f 116//24 121//23 122//36
f 121//23 105//32 122//36
f 124//101 123//110 111//55
f 124//101 117//21 123//110
f 117//21 106//35 123//110
f 126//102 125//106 107//43
f 126//102 114//27 125//106
f 114//27 102//20 125//106
f 128//103 127//107 108//46
f 128//103 118//30 127//107
f 118//30 103//26 127//107
f 130//104 129//108 109//49
f 130//104 120//33 129//108
f 120//33 104//29 129//108
f 132//105 131//109 110//52
f 132//105 122//36 131//109
f 122//36 105//32 131//109
f 125//106 133//44 107//43
f 125//106 124//101 133//44
f 124//101 111//55 133//44
f 127//107 134//47 108//46
f 127//107 126//102 134//47
f 126//102 107//43 134//47
f 129//108 135//50 109//49
f 129//108 128//103 135//50
f 128//103 108//46 135//50
f 131//109 136//53 110//52
f 131//109 130//104 136//53
f 130//104 109//49 136//53
f 123//110 137//56 111//55
f 123//110 132//105 137//56
f 132//105 110//52 137//56
f 139//45 138//57 112//68
f 139//45 133//44 138//57
f 133//44 111//55 138//57
f 140//48 139//45 112//68
f 140//48 134//47 139//45
f 134//47 107//43 139//45
f 141//51 140//48 112//68
f 141//51 135//50 140//48
f 135//50 108//46 140//48
f 142//54 141//51 112//68
f 142//54 136//53 141//51
f 136//53 109//49 141//51
f 138//57 142//54 112//68
f 138//57 137//56 142//54
f 137//56 110//52 142//54
g plane
v -5.000000 -1.000000 0.000000
v -7.000000 -1.000000 0.000000
v -5.000000 1.000000 0.000000
v -7.000000 1.000000 0.000000
s 1
f 144//68 143//68 146//68
f 143//68 145//68 146//68
g box
v -2.000000 1.000000 -1.000000
v -2.000000 -1.000000 -1.000000
v -4.000000 -1.000000 -1.000000
v -4.000000 1.000000 -1.000000
v -2.000000 0.999999 1.000000
v -2.000001 -1.000001 1.000000
v -4.000000 -1.000000 1.000000
v -4.000000 1.000000 1.000000
vn 0.577349 0.577349 -0.577349
vn 0.577349 -0.577349 -0.577349
vn -0.577349 0.577349 -0.577349
vn 0.577349 0.577349 0.577349
vn -0.577349 0.577349 0.577349
vn 0.577349 -0.577349 0.577349
vn -0.577349 -0.577349 -0.577349
vn -0.577349 -0.577349 0.577349
s 1
f 147//111 148//112 150//113
f 151//114 154//115 152//116
f 147//111 151//114 148//112
f 148//112 152//116 149//117
f 149//117 153//118 150//113
f 151//114 147//111 154//115
f 148//112 149//117 150//113
f 154//115 153//118 152//116
f 151//114 152//116 148//112
f 152//116 153//118 149//117
f 153//118 154//115 150//113
f 147//111 150//113 154//115
